<svg xmlns="http://www.w3.org/2000/svg" viewBox="0 0 200 200" fill="none">
  <!-- Cheese wedge -->
  <path d="M 50 140 L 100 40 L 150 140 Z" fill="#FFD700"/>
  <path d="M 50 140 Q 50 150 100 150 Q 150 150 150 140" fill="#FFC700"/>
  
  <!-- Side face -->
  <path d="M 100 40 L 150 140 Q 150 150 100 150 L 100 40" fill="#FFB700"/>
  
  <!-- Holes -->
  <ellipse cx="110" cy="90" rx="8" ry="6" fill="#FFA500" opacity="0.6"/>
  <ellipse cx="125" cy="110" rx="10" ry="8" fill="#FFA500" opacity="0.6"/>
  <ellipse cx="105" cy="120" rx="7" ry="5" fill="#FFA500" opacity="0.6"/>
  <ellipse cx="130" cy="130" rx="6" ry="5" fill="#FFA500" opacity="0.6"/>
  <ellipse cx="115" cy="105" rx="5" ry="4" fill="#FFA500" opacity="0.6"/>
  
  <!-- Highlights -->
  <ellipse cx="95" cy="60" rx="10" ry="15" fill="white" opacity="0.3"/>
  <ellipse cx="120" cy="80" rx="8" ry="12" fill="white" opacity="0.2"/>
  
  <!-- Outline -->
  <path d="M 50 140 L 100 40 L 150 140 Q 150 150 100 150 Q 50 150 50 140 Z" fill="none" stroke="#E6A800" stroke-width="2"/>
</svg>
