<svg xmlns="http://www.w3.org/2000/svg" viewBox="0 0 200 200" fill="none">
  <!-- Pea pod -->
  <path d="M 60 80 Q 50 100 55 120 Q 60 140 75 150 Q 90 160 110 160 Q 130 160 145 150 Q 160 140 165 120 Q 170 100 160 80 Q 150 60 130 55 Q 110 50 90 55 Q 70 60 60 80 Z" fill="#7CB342" stroke="#558B2F" stroke-width="2"/>
  
  <!-- Peas inside -->
  <circle cx="85" cy="95" r="12" fill="#9CCC65"/>
  <circle cx="110" cy="100" r="13" fill="#9CCC65"/>
  <circle cx="135" cy="105" r="12" fill="#9CCC65"/>
  <circle cx="95" cy="125" r="11" fill="#9CCC65"/>
  <circle cx="120" cy="130" r="12" fill="#9CCC65"/>
  
  <!-- Highlights on peas -->
  <circle cx="82" cy="92" r="4" fill="white" opacity="0.5"/>
  <circle cx="107" cy="97" r="4" fill="white" opacity="0.5"/>
  <circle cx="132" cy="102" r="4" fill="white" opacity="0.5"/>
  <circle cx="92" cy="122" r="3" fill="white" opacity="0.5"/>
  <circle cx="117" cy="127" r="4" fill="white" opacity="0.5"/>
  
  <!-- Pod texture -->
  <path d="M 70 85 Q 75 100 70 115" stroke="#689F38" stroke-width="1.5" fill="none" opacity="0.6"/>
  <path d="M 155 90 Q 160 105 155 120" stroke="#689F38" stroke-width="1.5" fill="none" opacity="0.6"/>
  
  <!-- Stem -->
  <path d="M 110 55 Q 105 45 100 35" stroke="#558B2F" stroke-width="3" fill="none" stroke-linecap="round"/>
  <path d="M 100 35 Q 95 30 90 28" stroke="#558B2F" stroke-width="2" fill="none" stroke-linecap="round"/>
  
  <!-- Highlight on pod -->
  <ellipse cx="80" cy="75" rx="15" ry="10" fill="white" opacity="0.3"/>
</svg>
