<svg xmlns="http://www.w3.org/2000/svg" viewBox="0 0 200 200" fill="none">
  <!-- Wok/Pan -->
  <path d="M 40 120 Q 40 140 100 145 Q 160 140 160 120 L 155 100 Q 155 95 100 95 Q 45 95 45 100 Z" 
        fill="#2C2C2C" stroke="#1A1A1A" stroke-width="2"/>
  
  <!-- Vegetables -->
  <!-- Broccoli -->
  <g>
    <circle cx="70" cy="110" r="8" fill="#4CAF50"/>
    <circle cx="67" cy="107" r="4" fill="#66BB6A"/>
    <circle cx="73" cy="107" r="4" fill="#66BB6A"/>
    <circle cx="70" cy="104" r="4" fill="#66BB6A"/>
  </g>
  
  <!-- Bell Pepper (red) -->
  <path d="M 90 105 L 95 110 L 92 115 L 87 113 Z" fill="#F44336"/>
  <path d="M 110 115 L 115 120 L 112 125 L 107 123 Z" fill="#F44336"/>
  
  <!-- Carrots (orange) -->
  <ellipse cx="100" cy="115" rx="12" ry="4" fill="#FF9800" transform="rotate(-30 100 115)"/>
  <ellipse cx="85" cy="120" rx="10" ry="3" fill="#FF9800" transform="rotate(20 85 120)"/>
  
  <!-- Onions (white) -->
  <path d="M 120 108 Q 125 110 123 115 Q 120 117 117 115 Q 115 110 120 108" fill="#F5F5F5" opacity="0.8"/>
  <path d="M 95 120 Q 100 122 98 127 Q 95 129 92 127 Q 90 122 95 120" fill="#F5F5F5" opacity="0.8"/>
  
  <!-- Mushrooms -->
  <ellipse cx="130" cy="115" rx="6" ry="8" fill="#D7CCC8"/>
  <ellipse cx="130" cy="118" rx="7" ry="3" fill="#BCAAA4"/>
  
  <ellipse cx="75" cy="118" rx="5" ry="7" fill="#D7CCC8"/>
  <ellipse cx="75" cy="120" rx="6" ry="3" fill="#BCAAA4"/>
  
  <!-- Snow peas -->
  <ellipse cx="105" cy="108" rx="8" ry="3" fill="#8BC34A" transform="rotate(45 105 108)"/>
  <ellipse cx="140" cy="120" rx="7" ry="3" fill="#8BC34A" transform="rotate(-20 140 120)"/>
  
  <!-- Baby corn -->
  <rect x="55" y="112" width="4" height="12" rx="2" fill="#FFF9C4" transform="rotate(15 57 118)"/>
  <rect x="145" y="110" width="4" height="12" rx="2" fill="#FFF9C4" transform="rotate(-25 147 116)"/>
  
  <!-- Sauce/Oil shine -->
  <ellipse cx="100" cy="118" rx="35" ry="8" fill="#FFD54F" opacity="0.3"/>
  
  <!-- Steam -->
  <g opacity="0.3" stroke="#999" stroke-width="1.5" fill="none">
    <path d="M 70 90 Q 68 80 70 70" stroke-linecap="round"/>
    <path d="M 100 85 Q 98 75 100 65" stroke-linecap="round"/>
    <path d="M 130 90 Q 132 80 130 70" stroke-linecap="round"/>
  </g>
  
  <!-- Sesame seeds -->
  <circle cx="95" cy="112" r="1.5" fill="#F5DEB3"/>
  <circle cx="108" cy="120" r="1.5" fill="#F5DEB3"/>
  <circle cx="118" cy="113" r="1.5" fill="#F5DEB3"/>
  <circle cx="82" cy="115" r="1.5" fill="#F5DEB3"/>
</svg>
